<?xml version="1.0" encoding="utf-8"?><svg xml:space="preserve" viewBox="0 0 100 100" y="0px" x="0px" xmlns:xlink="http://www.w3.org/1999/xlink" xmlns="http://www.w3.org/2000/svg" id="Layer_1" version="1.1" width="200px" height="200px" style="width:100%;height:100%;background-size:initial;background-repeat-y:initial;background-repeat-x:initial;background-position-y:initial;background-position-x:initial;background-origin:initial;background-image:initial;background-color:rgb(255, 255, 255);background-clip:initial;background-attachment:initial;animation-play-state:paused" ><g class="ldl-scale" style="transform-origin:50% 50%;transform:rotate(0deg) scale(0.8, 0.8);animation-play-state:paused" ><path d="M88.22,28.03c-0.78-1.66-2.8-2.32-4.39-1.41l-0.01,0.01c1.59-0.92,2.04-2.99,0.99-4.5C78.19,12.66,67.58,6.17,55.41,5.15 C53.58,4.99,52,6.41,52,8.25v0.01c0-1.83-1.58-3.26-3.4-3.1c-11.52,0.99-22.43,6.94-29.41,16.96c-1.05,1.51-0.61,3.59,0.98,4.51 l2.49,1.44l-2.48-1.43c-1.59-0.92-3.61-0.27-4.39,1.39c-4.9,10.47-5.21,22.9-0.01,33.95c0.78,1.66,2.8,2.32,4.39,1.41l6.81-3.93 c-5.35-9.26-4.98-20.24,0-28.89l0,0C32.33,21.3,42.03,16.13,52,16.12v0c10.69,0,20.02,5.81,25.01,14.45l0,0 c5.35,9.26,4.98,20.24,0,28.89l0,0C71.67,68.7,61.97,73.87,52,73.88v7.86c0,1.83,1.58,3.26,3.4,3.1 c11.52-0.99,22.43-6.94,29.41-16.96c1.05-1.51,0.61-3.59-0.98-4.51l-2.49-1.44l2.48,1.43c1.59,0.92,3.61,0.27,4.39-1.39 C93.11,51.51,93.41,39.08,88.22,28.03z" stroke-miterlimit="10" stroke-linejoin="round" stroke-linecap="round" stroke-width="3.5" stroke="#323334" fill="#F6B26A" style="stroke:rgb(50, 51, 52);fill:rgb(246, 178, 106);animation-play-state:paused" ></path>
<path d="M77.02,30.56L77.02,30.56c-5-8.63-14.33-14.44-25.02-14.44v0c-9.97,0.01-19.67,5.18-25.02,14.44l0,0c-4.98,8.64-5.35,19.63,0,28.89 L52,45v28.88c9.97-0.01,19.67-5.18,25.02-14.44l0,0C81.99,50.8,82.36,39.82,77.02,30.56z" stroke-miterlimit="10" stroke-linejoin="round" stroke-linecap="round" stroke-width="3.5" stroke="#323334" fill="#F5E169" style="stroke:rgb(50, 51, 52);fill:rgb(245, 225, 105);animation-play-state:paused" ></path>
<circle r="4.89" cy="29.6" cx="43.11" stroke-miterlimit="10" stroke-width="3.5" stroke="#323334" fill="#C33836" style="stroke:rgb(50, 51, 52);fill:rgb(195, 56, 54);animation-play-state:paused" ></circle>
<circle r="4.89" cy="45" cx="34.22" stroke-miterlimit="10" stroke-width="3.5" stroke="#323334" fill="#C33836" style="stroke:rgb(50, 51, 52);fill:rgb(195, 56, 54);animation-play-state:paused" ></circle>
<g style="animation-play-state:paused" ><path d="M19.99,70.44l-6.81,3.93c-1.59,0.92-2.04,2.99-0.99,4.5c6.62,9.48,17.23,15.96,29.39,16.99c1.83,0.15,3.41-1.26,3.41-3.1v-7.87 C34.31,84.89,24.98,79.07,19.99,70.44z" stroke-miterlimit="10" stroke-linejoin="round" stroke-linecap="round" stroke-width="3.5" stroke="#323334" fill="#F6B26A" style="stroke:rgb(50, 51, 52);fill:rgb(246, 178, 106);animation-play-state:paused" ></path>
<g style="animation-play-state:paused" ><path d="M45,84.89V56L19.99,70.44C24.98,79.07,34.31,84.89,45,84.89z" stroke-miterlimit="10" stroke-linejoin="round" stroke-linecap="round" stroke-width="3.5" stroke="#323334" fill="#F5E169" style="stroke:rgb(50, 51, 52);fill:rgb(245, 225, 105);animation-play-state:paused" ></path>
<circle r="4.89" cy="71.4" cx="36.11" stroke-miterlimit="10" stroke-width="3.5" stroke="#323334" fill="#C33836" style="stroke:rgb(50, 51, 52);fill:rgb(195, 56, 54);animation-play-state:paused" ></circle></g></g>
<circle r="4.89" cy="60.4" cx="60.89" stroke-miterlimit="10" stroke-width="3.5" stroke="#323334" fill="#C33836" style="stroke:rgb(50, 51, 52);fill:rgb(195, 56, 54);animation-play-state:paused" ></circle>
<circle r="4.89" cy="45" cx="69.78" stroke-miterlimit="10" stroke-width="3.5" stroke="#323334" fill="#C33836" style="stroke:rgb(50, 51, 52);fill:rgb(195, 56, 54);animation-play-state:paused" ></circle>
<circle r="4.89" cy="29.6" cx="60.89" stroke-miterlimit="10" stroke-width="3.5" stroke="#323334" fill="#C33836" style="stroke:rgb(50, 51, 52);fill:rgb(195, 56, 54);animation-play-state:paused" ></circle>
<metadata xmlns:d="https://loading.io/stock/" style="animation-play-state:paused" ><d:name style="animation-play-state:paused" >pizza</d:name>


<d:tags style="animation-play-state:paused" >pizza,delicious,food,yummy,bread,cheese,vegetable,sausage</d:tags>


<d:license style="animation-play-state:paused" >by</d:license>


<d:slug style="animation-play-state:paused" >g0h0uq</d:slug></metadata></g><!-- generated by https://loading.io/ --></svg>